<svg width="175" height="48" viewBox="0 0 175 48" fill="none" xmlns="http://www.w3.org/2000/svg">
<rect width="174.5" height="48" rx="18" fill="#627EEA"/>
<path opacity="0.3" d="M30.0864 29.5853L38.6243 24.5502L30.0864 20.6841V29.5853Z" fill="white"/>
<path d="M29.9026 10.125L21.375 24.2562L29.9026 20.3901V10.125Z" fill="white"/>
<path d="M21.375 25.8765L29.9026 37.8747V30.9013L21.375 25.8765Z" fill="white"/>
<path opacity="0.6" d="M29.9026 20.3901L21.375 24.2562L29.9026 29.2914V20.3901Z" fill="white"/>
<path opacity="0.6" d="M38.4397 24.2562L29.9019 10.125V20.3901L38.4397 24.2562Z" fill="white"/>
<path opacity="0.6" d="M29.9019 30.9018V37.8751L38.4397 25.877L29.9019 30.9018Z" fill="white"/>
<path d="M53.724 32V16.544H65.124V19.52H57.588V22.76H64.236V25.784H57.588V29.024H65.124V32H53.724ZM71.7634 32.24C70.3554 32.24 69.3154 31.88 68.6434 31.16C67.9874 30.44 67.6594 29.448 67.6594 28.184V23.552H66.1234V20.624H67.6594V18.248L71.5234 17.216V20.624H74.2834L74.1154 23.552H71.5234V27.92C71.5234 28.464 71.6594 28.848 71.9314 29.072C72.2034 29.28 72.6114 29.384 73.1554 29.384C73.6194 29.384 74.0914 29.304 74.5714 29.144V31.76C73.8194 32.08 72.8834 32.24 71.7634 32.24ZM76.0599 32V15.824H79.9239V21.464C80.3559 21.144 80.8919 20.888 81.5319 20.696C82.1719 20.488 82.8599 20.384 83.5959 20.384C85.1159 20.384 86.2279 20.744 86.9319 21.464C87.6519 22.184 88.0119 23.288 88.0119 24.776V32H84.1479V25.04C84.1479 24.384 84.0119 23.92 83.7399 23.648C83.4679 23.376 82.9799 23.24 82.2759 23.24C81.8599 23.24 81.4359 23.336 81.0039 23.528C80.5719 23.72 80.2119 23.96 79.9239 24.248V32H76.0599ZM96.2888 32.24C94.3048 32.24 92.7128 31.752 91.5128 30.776C90.3128 29.784 89.7128 28.296 89.7128 26.312C89.7128 24.504 90.2088 23.064 91.2008 21.992C92.1928 20.92 93.6808 20.384 95.6648 20.384C97.4728 20.384 98.8728 20.848 99.8648 21.776C100.857 22.704 101.353 23.952 101.353 25.52V27.56H93.2888C93.4648 28.312 93.8728 28.84 94.5128 29.144C95.1688 29.432 96.0568 29.576 97.1768 29.576C97.8008 29.576 98.4328 29.52 99.0728 29.408C99.7288 29.296 100.273 29.152 100.705 28.976V31.496C100.161 31.752 99.5128 31.936 98.7608 32.048C98.0088 32.176 97.1848 32.24 96.2888 32.24ZM93.2888 25.328H97.9928V24.824C97.9928 24.264 97.8248 23.824 97.4888 23.504C97.1528 23.168 96.5848 23 95.7848 23C94.8568 23 94.2088 23.192 93.8408 23.576C93.4728 23.944 93.2888 24.528 93.2888 25.328ZM103.318 32V20.624H106.99L107.11 21.68C107.606 21.376 108.222 21.104 108.958 20.864C109.694 20.608 110.43 20.448 111.166 20.384V23.288C110.75 23.336 110.286 23.416 109.774 23.528C109.278 23.624 108.798 23.744 108.334 23.888C107.886 24.032 107.502 24.184 107.182 24.344V32H103.318ZM118.25 32.24C116.266 32.24 114.674 31.752 113.474 30.776C112.274 29.784 111.674 28.296 111.674 26.312C111.674 24.504 112.17 23.064 113.162 21.992C114.154 20.92 115.642 20.384 117.626 20.384C119.434 20.384 120.834 20.848 121.826 21.776C122.818 22.704 123.314 23.952 123.314 25.52V27.56H115.25C115.426 28.312 115.834 28.84 116.474 29.144C117.13 29.432 118.018 29.576 119.138 29.576C119.762 29.576 120.394 29.52 121.034 29.408C121.69 29.296 122.234 29.152 122.666 28.976V31.496C122.122 31.752 121.474 31.936 120.722 32.048C119.97 32.176 119.146 32.24 118.25 32.24ZM115.25 25.328H119.954V24.824C119.954 24.264 119.786 23.824 119.45 23.504C119.114 23.168 118.546 23 117.746 23C116.818 23 116.17 23.192 115.802 23.576C115.434 23.944 115.25 24.528 115.25 25.328ZM129.191 32.24C127.847 32.24 126.799 31.864 126.047 31.112C125.295 30.344 124.919 29.232 124.919 27.776V20.624H128.783V27.56C128.783 28.2 128.935 28.672 129.239 28.976C129.559 29.264 130.031 29.408 130.655 29.408C131.119 29.408 131.559 29.312 131.975 29.12C132.391 28.928 132.735 28.688 133.007 28.4V20.624H136.871V32H133.271L133.151 31.04C132.687 31.392 132.127 31.68 131.471 31.904C130.815 32.128 130.055 32.24 129.191 32.24ZM139.318 32V20.624H142.894L143.014 21.632C143.526 21.264 144.102 20.968 144.742 20.744C145.382 20.504 146.07 20.384 146.806 20.384C147.574 20.384 148.174 20.504 148.606 20.744C149.038 20.968 149.374 21.288 149.614 21.704C150.142 21.32 150.734 21.008 151.39 20.768C152.062 20.512 152.846 20.384 153.742 20.384C155.07 20.384 156.046 20.728 156.67 21.416C157.294 22.104 157.606 23.152 157.606 24.56V32H153.79V25.016C153.79 24.392 153.654 23.944 153.382 23.672C153.126 23.384 152.702 23.24 152.11 23.24C151.742 23.24 151.382 23.32 151.03 23.48C150.678 23.624 150.382 23.832 150.142 24.104C150.174 24.28 150.19 24.448 150.19 24.608C150.206 24.768 150.214 24.96 150.214 25.184V32H146.614V24.968C146.614 24.392 146.51 23.96 146.302 23.672C146.11 23.384 145.734 23.24 145.174 23.24C144.774 23.24 144.398 23.344 144.046 23.552C143.694 23.76 143.374 24 143.086 24.272V32H139.318Z" fill="white"/>
</svg>
