<svg width="48" height="48" viewBox="0 0 48 48" fill="none" xmlns="http://www.w3.org/2000/svg">
<rect width="48" height="48" rx="18" fill="url(#paint0_linear_902_14700)"/>
<path d="M31.2738 29.6257L38.3897 25.5086C38.7669 25.2899 39 24.8843 39 24.4491V16.2149C39 15.7796 38.7669 15.374 38.3897 15.1553L31.2738 11.0382C30.8966 10.8195 30.4283 10.8217 30.0532 11.0382L22.9373 15.1553C22.5601 15.374 22.327 15.7796 22.327 16.2149V30.9294L17.3365 33.815L12.346 30.9294V25.1561L17.3365 22.2705L20.6275 24.1752V20.3022L17.9468 18.7501C17.7624 18.6439 17.5505 18.5866 17.3365 18.5866C17.1225 18.5866 16.9106 18.6439 16.7262 18.7501L9.6103 22.8672C9.2331 23.0859 9 23.4914 9 23.9267V32.1609C9 32.5962 9.2331 33.0018 9.6103 33.2205L16.7262 37.3376C17.1034 37.5541 17.5696 37.5541 17.9468 37.3376L25.0627 33.2205C25.4399 33.0018 25.673 32.5962 25.673 32.1609V17.4464L25.762 17.3954L30.6614 14.5608L35.6518 17.4464V23.2197L30.6614 26.1052L27.3746 24.2049V28.0778L30.0511 29.6257C30.4283 29.8423 30.8966 29.8423 31.2717 29.6257H31.2738Z" fill="white"/>
<defs>
<linearGradient id="paint0_linear_902_14700" x1="24" y1="0" x2="24" y2="48" gradientUnits="userSpaceOnUse">
<stop stop-color="#9132D2"/>
<stop offset="1" stop-color="#803DE1"/>
</linearGradient>
</defs>
</svg>
