<svg width="248" height="48" viewBox="0 0 248 48" fill="none" xmlns="http://www.w3.org/2000/svg">
<rect width="248" height="48" rx="18" fill="url(#paint0_linear_902_14742)"/>
<path d="M40.2738 29.6257L47.3897 25.5086C47.7669 25.2899 48 24.8843 48 24.4491V16.2149C48 15.7796 47.7669 15.374 47.3897 15.1553L40.2738 11.0382C39.8966 10.8195 39.4283 10.8217 39.0532 11.0382L31.9373 15.1553C31.5601 15.374 31.327 15.7796 31.327 16.2149V30.9294L26.3365 33.815L21.346 30.9294V25.1561L26.3365 22.2705L29.6275 24.1752V20.3022L26.9468 18.7501C26.7624 18.6439 26.5505 18.5866 26.3365 18.5866C26.1225 18.5866 25.9106 18.6439 25.7262 18.7501L18.6103 22.8672C18.2331 23.0859 18 23.4914 18 23.9267V32.1609C18 32.5962 18.2331 33.0018 18.6103 33.2205L25.7262 37.3376C26.1034 37.5541 26.5696 37.5541 26.9468 37.3376L34.0627 33.2205C34.4399 33.0018 34.673 32.5962 34.673 32.1609V17.4464L34.762 17.3954L39.6614 14.5608L44.6518 17.4464V23.2197L39.6614 26.1052L36.3746 24.2049V28.0778L39.0511 29.6257C39.4283 29.8423 39.8966 29.8423 40.2717 29.6257H40.2738Z" fill="white"/>
<path d="M61.224 32V16.544H68.832C70.064 16.544 71.08 16.792 71.88 17.288C72.68 17.768 73.272 18.424 73.656 19.256C74.056 20.088 74.256 21.024 74.256 22.064C74.256 23.12 74.032 24.056 73.584 24.872C73.136 25.688 72.496 26.328 71.664 26.792C70.848 27.24 69.872 27.464 68.736 27.464H65.088V32H61.224ZM65.088 24.488H67.872C68.688 24.488 69.296 24.264 69.696 23.816C70.112 23.368 70.32 22.776 70.32 22.04C70.32 21.24 70.128 20.624 69.744 20.192C69.376 19.744 68.792 19.52 67.992 19.52H65.088V24.488ZM81.7067 32.24C79.5147 32.24 77.8987 31.736 76.8587 30.728C75.8187 29.704 75.2987 28.232 75.2987 26.312C75.2987 24.408 75.8187 22.944 76.8587 21.92C77.9147 20.896 79.5307 20.384 81.7067 20.384C83.8987 20.384 85.5147 20.896 86.5547 21.92C87.6107 22.944 88.1387 24.408 88.1387 26.312C88.1387 28.232 87.6187 29.704 86.5787 30.728C85.5387 31.736 83.9147 32.24 81.7067 32.24ZM81.7067 29.216C82.6027 29.216 83.2427 28.992 83.6267 28.544C84.0107 28.096 84.2027 27.352 84.2027 26.312C84.2027 25.272 84.0107 24.528 83.6267 24.08C83.2427 23.632 82.6027 23.408 81.7067 23.408C80.8267 23.408 80.1947 23.632 79.8107 24.08C79.4267 24.528 79.2347 25.272 79.2347 26.312C79.2347 27.352 79.4267 28.096 79.8107 28.544C80.1947 28.992 80.8267 29.216 81.7067 29.216ZM93.603 32.24C92.355 32.24 91.459 31.968 90.915 31.424C90.371 30.88 90.099 30.008 90.099 28.808V15.824H93.963V28.424C93.963 28.792 94.035 29.048 94.179 29.192C94.339 29.32 94.571 29.384 94.875 29.384C95.307 29.384 95.691 29.328 96.027 29.216V31.832C95.659 31.976 95.291 32.08 94.923 32.144C94.571 32.208 94.131 32.24 93.603 32.24ZM99.2955 36.224C98.7195 36.224 98.2235 36.192 97.8075 36.128C97.4075 36.08 97.0075 35.976 96.6075 35.816V33.128C96.8795 33.224 97.1275 33.288 97.3515 33.32C97.5915 33.352 97.8315 33.368 98.0715 33.368C98.7275 33.368 99.2155 33.248 99.5355 33.008C99.8715 32.784 100.208 32.376 100.544 31.784L95.4315 20.624H99.4875L102.488 27.848L105.44 20.624H109.472L105.128 31.064C104.696 32.104 104.216 33.008 103.688 33.776C103.16 34.56 102.544 35.16 101.84 35.576C101.136 36.008 100.288 36.224 99.2955 36.224ZM114.776 36.224C114.216 36.224 113.624 36.2 113 36.152C112.376 36.104 111.784 36.032 111.224 35.936C110.664 35.84 110.184 35.728 109.784 35.6V32.96C110.424 33.168 111.192 33.328 112.088 33.44C112.984 33.552 113.808 33.608 114.56 33.608C115.536 33.608 116.264 33.552 116.744 33.44C117.24 33.344 117.488 33.168 117.488 32.912C117.488 32.688 117.392 32.536 117.2 32.456C117.008 32.376 116.632 32.336 116.072 32.336H112.928C111.904 32.336 111.104 32.152 110.528 31.784C109.968 31.416 109.688 30.88 109.688 30.176C109.688 29.696 109.832 29.24 110.12 28.808C110.424 28.376 110.864 28.056 111.44 27.848C110.784 27.512 110.288 27.088 109.952 26.576C109.616 26.064 109.448 25.416 109.448 24.632C109.448 23.16 109.92 22.088 110.864 21.416C111.824 20.728 113.224 20.384 115.064 20.384C115.448 20.384 115.872 20.416 116.336 20.48C116.816 20.528 117.168 20.576 117.392 20.624H121.76L121.664 23.024H120.008C120.408 23.424 120.608 24.016 120.608 24.8C120.608 25.904 120.248 26.792 119.528 27.464C118.824 28.136 117.752 28.472 116.312 28.472C116.072 28.472 115.832 28.464 115.592 28.448C115.368 28.416 115.144 28.392 114.92 28.376C114.504 28.424 114.144 28.512 113.84 28.64C113.552 28.768 113.408 28.952 113.408 29.192C113.408 29.384 113.48 29.512 113.624 29.576C113.784 29.64 114.016 29.672 114.32 29.672H117.224C118.392 29.672 119.296 29.944 119.936 30.488C120.592 31.016 120.92 31.792 120.92 32.816C120.92 35.088 118.872 36.224 114.776 36.224ZM115.088 26.336C115.936 26.336 116.52 26.192 116.84 25.904C117.16 25.616 117.32 25.136 117.32 24.464C117.32 23.792 117.152 23.304 116.816 23C116.496 22.696 115.92 22.544 115.088 22.544C114.304 22.544 113.736 22.696 113.384 23C113.048 23.288 112.88 23.776 112.88 24.464C112.88 25.104 113.04 25.576 113.36 25.88C113.68 26.184 114.256 26.336 115.088 26.336ZM129.332 32.24C127.14 32.24 125.524 31.736 124.484 30.728C123.444 29.704 122.924 28.232 122.924 26.312C122.924 24.408 123.444 22.944 124.484 21.92C125.54 20.896 127.156 20.384 129.332 20.384C131.524 20.384 133.14 20.896 134.18 21.92C135.236 22.944 135.764 24.408 135.764 26.312C135.764 28.232 135.244 29.704 134.204 30.728C133.164 31.736 131.54 32.24 129.332 32.24ZM129.332 29.216C130.228 29.216 130.868 28.992 131.252 28.544C131.636 28.096 131.828 27.352 131.828 26.312C131.828 25.272 131.636 24.528 131.252 24.08C130.868 23.632 130.228 23.408 129.332 23.408C128.452 23.408 127.82 23.632 127.436 24.08C127.052 24.528 126.86 25.272 126.86 26.312C126.86 27.352 127.052 28.096 127.436 28.544C127.82 28.992 128.452 29.216 129.332 29.216ZM137.724 32V20.624H141.324L141.444 21.608C141.908 21.288 142.492 21.008 143.196 20.768C143.9 20.512 144.652 20.384 145.452 20.384C146.924 20.384 147.996 20.736 148.668 21.44C149.34 22.144 149.676 23.232 149.676 24.704V32H145.812V25.016C145.812 24.376 145.676 23.92 145.404 23.648C145.132 23.376 144.644 23.24 143.94 23.24C143.524 23.24 143.1 23.336 142.668 23.528C142.236 23.72 141.876 23.96 141.588 24.248V32H137.724ZM156.674 32V29.936L161.93 23.696H156.866V20.624H166.826V22.88L161.69 29.024H166.994V32H156.674ZM168.966 32V15.824H172.83V24.272L176.55 20.624H180.942L176.382 25.352L181.206 32H177.102L173.958 27.392L172.83 28.496V32H168.966ZM182.185 32V16.544H193.585V19.52H186.049V22.76H192.697V25.784H186.049V29.024H193.585V32H182.185ZM200.5 32L194.596 16.544H198.628L202.564 27.584L206.524 16.544H210.58L204.676 32H200.5ZM212.185 32V16.544H216.001L220.201 25.112L224.377 16.544H228.169V32H224.305V23.12L221.257 29.36H219.121L216.049 23.12V32H212.185Z" fill="white"/>
<defs>
<linearGradient id="paint0_linear_902_14742" x1="124" y1="0" x2="124" y2="48" gradientUnits="userSpaceOnUse">
<stop stop-color="#9132D2"/>
<stop offset="1" stop-color="#803DE1"/>
</linearGradient>
</defs>
</svg>
