<svg width="223" height="48" viewBox="0 0 223 48" fill="none" xmlns="http://www.w3.org/2000/svg">
<rect width="223" height="48" rx="18" fill="#F0B90B"/>
<path d="M24.9234 13.6264L32.9926 9L41.0618 13.6264L38.0341 15.2528L32.9926 12.3759L27.8201 15.2528L24.9234 13.6264ZM40.9377 19.3736L38.0341 17.7472L32.9926 20.6241L27.8201 17.7472L24.9165 19.3736V22.7494L29.9649 25.6264V31.5034L32.8685 33.2528L35.772 31.5034V25.7563L40.8204 22.8793V19.3804H40.9377V19.3736ZM40.9377 28.6264V25.2506L38.0341 27V30.246L40.9377 28.6264ZM43.0826 29.7472L38.041 32.6241V36L46.1171 31.3736V22.1276L43.0895 24L43.0826 29.7472ZM40.179 16.5034L43.0826 18.2528V21.6287L45.9861 19.8793V16.5034L43.0826 14.754L40.179 16.5034ZM29.9649 33.8747V37.2506L32.8685 39L35.772 37.2506V33.8747L32.8685 35.6241L29.9649 33.8747ZM24.9165 28.6264L27.8201 30.2528V26.877L24.9165 25.1276V28.6264ZM29.9649 16.5034L32.8685 18.2528L35.8961 16.5034L32.9926 14.754L29.9649 16.5034ZM22.7785 18.2528L25.8062 16.5034L22.7785 14.754L19.875 16.5034V19.8793L22.7785 21.6287V18.2528ZM22.7785 24L19.875 22.2506V31.4966L27.9511 36.123V32.7472L22.9027 29.8702V23.9932L22.7785 24Z" fill="black"/>
<path d="M67.152 32.24C64.96 32.24 63.344 31.736 62.304 30.728C61.264 29.704 60.744 28.232 60.744 26.312C60.744 24.408 61.264 22.944 62.304 21.92C63.36 20.896 64.976 20.384 67.152 20.384C69.344 20.384 70.96 20.896 72 21.92C73.056 22.944 73.584 24.408 73.584 26.312C73.584 28.232 73.064 29.704 72.024 30.728C70.984 31.736 69.36 32.24 67.152 32.24ZM67.152 29.216C68.048 29.216 68.688 28.992 69.072 28.544C69.456 28.096 69.648 27.352 69.648 26.312C69.648 25.272 69.456 24.528 69.072 24.08C68.688 23.632 68.048 23.408 67.152 23.408C66.272 23.408 65.64 23.632 65.256 24.08C64.872 24.528 64.68 25.272 64.68 26.312C64.68 27.352 64.872 28.096 65.256 28.544C65.64 28.992 66.272 29.216 67.152 29.216ZM75.5443 37.184V20.624H78.9043L79.0963 21.608C79.5603 21.224 80.0803 20.928 80.6563 20.72C81.2323 20.496 81.9043 20.384 82.6723 20.384C84.2883 20.384 85.5683 20.824 86.5123 21.704C87.4563 22.568 87.9283 24.024 87.9283 26.072C87.9283 28.104 87.4403 29.64 86.4643 30.68C85.5043 31.72 84.1763 32.24 82.4803 32.24C81.2803 32.24 80.2563 31.992 79.4083 31.496V37.184H75.5443ZM81.4963 29.408C83.1603 29.408 83.9923 28.272 83.9923 26C83.9923 24.912 83.8003 24.176 83.4163 23.792C83.0323 23.408 82.4163 23.216 81.5683 23.216C80.7523 23.216 80.0323 23.504 79.4083 24.08V28.688C79.7123 28.912 80.0163 29.088 80.3203 29.216C80.6403 29.344 81.0323 29.408 81.4963 29.408ZM89.8881 32V16.544H98.0481C99.6001 16.544 100.768 16.912 101.552 17.648C102.352 18.384 102.752 19.424 102.752 20.768C102.752 21.584 102.592 22.272 102.272 22.832C101.968 23.376 101.56 23.8 101.048 24.104C101.752 24.36 102.304 24.736 102.704 25.232C103.104 25.728 103.304 26.472 103.304 27.464C103.304 28.936 102.872 30.064 102.008 30.848C101.144 31.616 99.9041 32 98.2881 32H89.8881ZM93.7521 22.832H96.8961C97.5681 22.832 98.0561 22.68 98.3601 22.376C98.6641 22.072 98.8161 21.648 98.8161 21.104C98.8161 20.512 98.6641 20.072 98.3601 19.784C98.0561 19.48 97.5041 19.328 96.7041 19.328H93.7521V22.832ZM93.7521 29.24H97.2801C97.9841 29.24 98.5041 29.096 98.8401 28.808C99.1921 28.52 99.3681 28.008 99.3681 27.272C99.3681 26.68 99.2001 26.24 98.8641 25.952C98.5281 25.648 97.9521 25.496 97.1361 25.496H93.7521V29.24ZM105.263 32V16.544H108.575L115.151 25.784V16.544H119.039V32H115.703L109.127 22.784V32H105.263ZM121.482 32V16.544H129.642C131.194 16.544 132.362 16.912 133.146 17.648C133.946 18.384 134.346 19.424 134.346 20.768C134.346 21.584 134.186 22.272 133.866 22.832C133.562 23.376 133.154 23.8 132.642 24.104C133.346 24.36 133.898 24.736 134.298 25.232C134.698 25.728 134.898 26.472 134.898 27.464C134.898 28.936 134.466 30.064 133.602 30.848C132.738 31.616 131.498 32 129.882 32H121.482ZM125.346 22.832H128.49C129.162 22.832 129.65 22.68 129.954 22.376C130.258 22.072 130.41 21.648 130.41 21.104C130.41 20.512 130.258 20.072 129.954 19.784C129.65 19.48 129.098 19.328 128.298 19.328H125.346V22.832ZM125.346 29.24H128.874C129.578 29.24 130.098 29.096 130.434 28.808C130.786 28.52 130.962 28.008 130.962 27.272C130.962 26.68 130.794 26.24 130.458 25.952C130.122 25.648 129.546 25.496 128.73 25.496H125.346V29.24ZM149.837 32.24C147.133 32.24 145.069 31.552 143.645 30.176C142.237 28.784 141.533 26.856 141.533 24.392C141.533 21.816 142.221 19.824 143.597 18.416C144.989 17.008 147.061 16.304 149.813 16.304C150.757 16.304 151.597 16.376 152.333 16.52C153.085 16.664 153.805 16.856 154.493 17.096V20.48C153.101 19.904 151.637 19.616 150.101 19.616C148.501 19.616 147.325 20 146.573 20.768C145.837 21.536 145.469 22.744 145.469 24.392C145.469 25.96 145.861 27.112 146.645 27.848C147.429 28.584 148.597 28.952 150.149 28.952C150.901 28.952 151.645 28.888 152.381 28.76C153.117 28.616 153.829 28.4 154.517 28.112V31.52C153.845 31.744 153.133 31.92 152.381 32.048C151.629 32.176 150.781 32.24 149.837 32.24ZM156.474 32V15.824H160.338V21.464C160.77 21.144 161.306 20.888 161.946 20.696C162.586 20.488 163.274 20.384 164.01 20.384C165.53 20.384 166.642 20.744 167.346 21.464C168.066 22.184 168.426 23.288 168.426 24.776V32H164.562V25.04C164.562 24.384 164.426 23.92 164.154 23.648C163.882 23.376 163.394 23.24 162.69 23.24C162.274 23.24 161.85 23.336 161.418 23.528C160.986 23.72 160.626 23.96 160.338 24.248V32H156.474ZM173.948 32.24C173.228 32.24 172.556 32.112 171.932 31.856C171.324 31.6 170.836 31.208 170.468 30.68C170.1 30.136 169.916 29.464 169.916 28.664C169.916 27.496 170.308 26.584 171.092 25.928C171.892 25.256 173.084 24.92 174.668 24.92H177.836V24.656C177.836 24.08 177.644 23.672 177.26 23.432C176.876 23.176 176.156 23.048 175.1 23.048C173.804 23.048 172.532 23.248 171.284 23.648V21.152C171.844 20.928 172.524 20.744 173.324 20.6C174.14 20.456 174.996 20.384 175.892 20.384C177.652 20.384 179.028 20.744 180.02 21.464C181.028 22.184 181.532 23.328 181.532 24.896V32H178.148L177.956 31.04C177.54 31.424 177.004 31.72 176.348 31.928C175.708 32.136 174.908 32.24 173.948 32.24ZM175.172 29.864C175.78 29.864 176.308 29.76 176.756 29.552C177.204 29.344 177.564 29.08 177.836 28.76V27.152H175.1C173.964 27.152 173.396 27.608 173.396 28.52C173.396 28.936 173.54 29.264 173.828 29.504C174.116 29.744 174.564 29.864 175.172 29.864ZM184.617 18.824V15.92H188.817V18.824H184.617ZM184.929 32V23.48H183.249L183.585 20.624H188.793V32H184.929ZM191.255 32V20.624H194.855L194.975 21.608C195.439 21.288 196.023 21.008 196.727 20.768C197.431 20.512 198.183 20.384 198.983 20.384C200.455 20.384 201.527 20.736 202.199 21.44C202.871 22.144 203.207 23.232 203.207 24.704V32H199.343V25.016C199.343 24.376 199.207 23.92 198.935 23.648C198.663 23.376 198.175 23.24 197.471 23.24C197.055 23.24 196.631 23.336 196.199 23.528C195.767 23.72 195.407 23.96 195.119 24.248V32H191.255Z" fill="black"/>
</svg>
