<svg width="200" height="48" viewBox="0 0 200 48" fill="none" xmlns="http://www.w3.org/2000/svg">
<rect width="200" height="48" rx="18" fill="#3567F6"/>
<path d="M35.1522 20.5935L26.6087 26.7023V33L18 24.687L26.4783 16.5V20.5935H35.1522Z" fill="white"/>
<path d="M39.4565 22.6088V16.5L48 24.75L39.4565 33V28.8435H30.8478L39.4565 22.6088Z" fill="white"/>
<path d="M60.744 32V30.032L67.992 19.616H61.104V16.544H73.056V18.704L65.88 29.024H73.2V32H60.744ZM75.099 32V16.544H78.963V22.544L84.291 16.544H88.707L83.187 22.856L89.043 32H84.915L80.787 25.328L78.963 27.32V32H75.099ZM94.6277 32.24C93.7157 32.24 92.8517 32.176 92.0357 32.048C91.2197 31.92 90.5717 31.76 90.0917 31.568V28.616C90.6517 28.856 91.2997 29.04 92.0357 29.168C92.7717 29.296 93.4277 29.36 94.0037 29.36C94.6917 29.36 95.1877 29.328 95.4917 29.264C95.8117 29.2 95.9717 29.024 95.9717 28.736C95.9717 28.416 95.7157 28.176 95.2037 28.016C94.6917 27.856 93.9877 27.624 93.0917 27.32C92.0517 26.952 91.2597 26.528 90.7157 26.048C90.1877 25.552 89.9237 24.824 89.9237 23.864C89.9237 22.744 90.3397 21.888 91.1717 21.296C92.0197 20.688 93.3637 20.384 95.2037 20.384C95.9237 20.384 96.6357 20.44 97.3397 20.552C98.0437 20.664 98.6197 20.792 99.0677 20.936V23.84C98.6197 23.632 98.1077 23.48 97.5317 23.384C96.9557 23.288 96.4357 23.24 95.9717 23.24C95.3797 23.24 94.8757 23.28 94.4597 23.36C94.0597 23.424 93.8597 23.592 93.8597 23.864C93.8597 24.168 94.0837 24.384 94.5317 24.512C94.9797 24.624 95.6277 24.816 96.4757 25.088C97.3717 25.36 98.0677 25.656 98.5637 25.976C99.0597 26.28 99.4117 26.648 99.6197 27.08C99.8277 27.512 99.9317 28.056 99.9317 28.712C99.9317 29.848 99.4837 30.72 98.5877 31.328C97.6917 31.936 96.3717 32.24 94.6277 32.24ZM104.194 36.224C103.618 36.224 103.122 36.192 102.706 36.128C102.306 36.08 101.906 35.976 101.506 35.816V33.128C101.778 33.224 102.026 33.288 102.25 33.32C102.49 33.352 102.73 33.368 102.97 33.368C103.626 33.368 104.114 33.248 104.434 33.008C104.77 32.784 105.106 32.376 105.442 31.784L100.33 20.624H104.386L107.386 27.848L110.338 20.624H114.37L110.026 31.064C109.594 32.104 109.114 33.008 108.586 33.776C108.058 34.56 107.442 35.16 106.738 35.576C106.034 36.008 105.186 36.224 104.194 36.224ZM115.857 32V20.624H119.457L119.577 21.608C120.041 21.288 120.625 21.008 121.329 20.768C122.033 20.512 122.785 20.384 123.585 20.384C125.057 20.384 126.129 20.736 126.801 21.44C127.473 22.144 127.809 23.232 127.809 24.704V32H123.945V25.016C123.945 24.376 123.809 23.92 123.537 23.648C123.265 23.376 122.777 23.24 122.073 23.24C121.657 23.24 121.233 23.336 120.801 23.528C120.369 23.72 120.009 23.96 119.721 24.248V32H115.857ZM135.99 32.24C133.958 32.24 132.366 31.744 131.214 30.752C130.078 29.76 129.51 28.28 129.51 26.312C129.51 24.312 130.102 22.824 131.286 21.848C132.486 20.872 134.078 20.384 136.062 20.384C136.894 20.384 137.614 20.448 138.222 20.576C138.846 20.688 139.446 20.88 140.022 21.152V23.888C139.126 23.456 138.078 23.24 136.878 23.24C135.758 23.24 134.902 23.464 134.31 23.912C133.734 24.36 133.446 25.16 133.446 26.312C133.446 27.384 133.718 28.168 134.262 28.664C134.806 29.144 135.67 29.384 136.854 29.384C138.022 29.384 139.086 29.144 140.046 28.664V31.52C139.47 31.776 138.846 31.96 138.174 32.072C137.518 32.184 136.79 32.24 135.99 32.24ZM147.169 32V16.544H158.569V19.52H151.033V22.76H157.681V25.784H151.033V29.024H158.569V32H147.169ZM160.412 32V20.624H164.084L164.204 21.68C164.7 21.376 165.316 21.104 166.052 20.864C166.788 20.608 167.524 20.448 168.26 20.384V23.288C167.844 23.336 167.38 23.416 166.868 23.528C166.372 23.624 165.892 23.744 165.428 23.888C164.98 24.032 164.596 24.184 164.276 24.344V32H160.412ZM172.542 32.24C171.822 32.24 171.15 32.112 170.526 31.856C169.918 31.6 169.43 31.208 169.062 30.68C168.694 30.136 168.51 29.464 168.51 28.664C168.51 27.496 168.902 26.584 169.686 25.928C170.486 25.256 171.678 24.92 173.262 24.92H176.43V24.656C176.43 24.08 176.238 23.672 175.854 23.432C175.47 23.176 174.75 23.048 173.694 23.048C172.398 23.048 171.126 23.248 169.878 23.648V21.152C170.438 20.928 171.118 20.744 171.918 20.6C172.734 20.456 173.59 20.384 174.486 20.384C176.246 20.384 177.622 20.744 178.614 21.464C179.622 22.184 180.126 23.328 180.126 24.896V32H176.742L176.55 31.04C176.134 31.424 175.598 31.72 174.942 31.928C174.302 32.136 173.502 32.24 172.542 32.24ZM173.766 29.864C174.374 29.864 174.902 29.76 175.35 29.552C175.798 29.344 176.158 29.08 176.43 28.76V27.152H173.694C172.558 27.152 171.99 27.608 171.99 28.52C171.99 28.936 172.134 29.264 172.422 29.504C172.71 29.744 173.158 29.864 173.766 29.864Z" fill="white"/>
</svg>
