<svg width="48" height="48" viewBox="0 0 48 48" fill="none" xmlns="http://www.w3.org/2000/svg">
<rect width="48" height="48" rx="18" fill="#2D364D"/>
<path d="M24.0444 10.8595C24.1159 10.8595 24.1874 10.8792 24.2515 10.9162L35.2491 17.3157C35.3772 17.3897 35.4561 17.5278 35.4537 17.6733L35.4118 30.4007C35.4118 30.5487 35.3329 30.6843 35.2047 30.7583L24.1652 37.0863C24.1035 37.1233 24.0296 37.1405 23.9581 37.1405C23.8866 37.1405 23.8151 37.1208 23.751 37.0838L12.7534 30.6843C12.6252 30.6103 12.5463 30.4722 12.5488 30.3267L12.5907 17.5993C12.5907 17.4513 12.6696 17.3157 12.7978 17.2417L23.8373 10.9137C23.8989 10.8767 23.9704 10.8595 24.0444 10.8595ZM24.0493 9.00004C23.6573 8.99758 23.2653 9.09869 22.9128 9.30091L11.8733 15.6264C11.1682 16.0309 10.7344 16.7781 10.7294 17.5919L10.6875 30.3193C10.685 31.1307 11.1165 31.8828 11.8166 32.2922L22.8142 38.6917C23.1643 38.8964 23.5563 38.9975 23.9507 39C24.3427 39.0024 24.7347 38.9013 25.0872 38.6991L36.1267 32.3711C36.8318 31.9667 37.2656 31.2195 37.2706 30.4057L37.3125 17.6807C37.315 16.8693 36.8835 16.1172 36.1834 15.7078L25.1858 9.3083C24.8333 9.10362 24.4413 9.00004 24.0493 9.00004Z" fill="white"/>
<path d="M26.2776 15.936H24.6653C24.5445 15.936 24.436 16.0125 24.3941 16.1259L19.2121 30.3404C19.1776 30.4341 19.2466 30.5328 19.3477 30.5328H20.96C21.0808 30.5328 21.1892 30.4563 21.2311 30.3429L26.4156 16.1259C26.4452 16.0347 26.3762 15.936 26.2776 15.936ZM23.4573 15.936H21.845C21.7242 15.936 21.6157 16.0125 21.5738 16.1259L16.3918 30.3404C16.3573 30.4341 16.4263 30.5328 16.5274 30.5328H18.1397C18.2605 30.5328 18.369 30.4563 18.4109 30.3429L23.5953 16.1259C23.6274 16.0347 23.5584 15.936 23.4573 15.936ZM25.5454 21.4477C25.4985 21.322 25.321 21.322 25.2742 21.4477L24.436 23.7461C24.4138 23.8102 24.4138 23.8793 24.436 23.9434L26.7706 30.3454C26.8125 30.4588 26.921 30.5353 27.0418 30.5353H28.6541C28.7552 30.5353 28.8242 30.4366 28.7897 30.3429L25.5454 21.4477ZM31.6075 30.3404L26.9555 17.5834C26.9087 17.4576 26.7312 17.4576 26.6843 17.5834L25.8461 19.8818C25.8239 19.9459 25.8239 20.0149 25.8461 20.0791L29.5909 30.3454C29.6328 30.4588 29.7413 30.5353 29.8621 30.5353H31.4744C31.5705 30.5328 31.642 30.4341 31.6075 30.3404Z" fill="white"/>
</svg>
