<svg width="229" height="48" viewBox="0 0 229 48" fill="none" xmlns="http://www.w3.org/2000/svg">
<rect width="229" height="48" rx="18" fill="#2D364D"/>
<path d="M33.0444 10.8595C33.1159 10.8595 33.1874 10.8792 33.2515 10.9162L44.2491 17.3157C44.3772 17.3897 44.4561 17.5278 44.4537 17.6733L44.4118 30.4007C44.4118 30.5487 44.3329 30.6843 44.2047 30.7583L33.1652 37.0863C33.1035 37.1233 33.0296 37.1405 32.9581 37.1405C32.8866 37.1405 32.8151 37.1208 32.751 37.0838L21.7534 30.6843C21.6252 30.6103 21.5463 30.4722 21.5488 30.3267L21.5907 17.5993C21.5907 17.4513 21.6696 17.3157 21.7978 17.2417L32.8373 10.9137C32.8989 10.8767 32.9704 10.8595 33.0444 10.8595ZM33.0493 9.00004C32.6573 8.99758 32.2653 9.09869 31.9128 9.30091L20.8733 15.6264C20.1682 16.0309 19.7344 16.7781 19.7294 17.5919L19.6875 30.3193C19.685 31.1307 20.1165 31.8828 20.8166 32.2922L31.8142 38.6917C32.1643 38.8964 32.5563 38.9975 32.9507 39C33.3427 39.0024 33.7347 38.9013 34.0872 38.6991L45.1267 32.3711C45.8318 31.9667 46.2656 31.2195 46.2706 30.4057L46.3125 17.6807C46.315 16.8693 45.8835 16.1172 45.1834 15.7078L34.1858 9.3083C33.8333 9.10362 33.4413 9.00004 33.0493 9.00004Z" fill="white"/>
<path d="M35.2776 15.936H33.6653C33.5445 15.936 33.436 16.0125 33.3941 16.1259L28.2121 30.3404C28.1776 30.4341 28.2466 30.5328 28.3477 30.5328H29.96C30.0808 30.5328 30.1892 30.4563 30.2311 30.3429L35.4156 16.1259C35.4452 16.0347 35.3762 15.936 35.2776 15.936ZM32.4573 15.936H30.845C30.7242 15.936 30.6157 16.0125 30.5738 16.1259L25.3918 30.3404C25.3573 30.4341 25.4263 30.5328 25.5274 30.5328H27.1397C27.2605 30.5328 27.369 30.4563 27.4109 30.3429L32.5953 16.1259C32.6274 16.0347 32.5584 15.936 32.4573 15.936ZM34.5454 21.4477C34.4985 21.322 34.321 21.322 34.2742 21.4477L33.436 23.7461C33.4138 23.8102 33.4138 23.8793 33.436 23.9434L35.7706 30.3454C35.8125 30.4588 35.921 30.5353 36.0418 30.5353H37.6541C37.7552 30.5353 37.8242 30.4366 37.7897 30.3429L34.5454 21.4477ZM40.6075 30.3404L35.9555 17.5834C35.9087 17.4576 35.7312 17.4576 35.6843 17.5834L34.8461 19.8818C34.8239 19.9459 34.8239 20.0149 34.8461 20.0791L38.5909 30.3454C38.6328 30.4588 38.7413 30.5353 38.8621 30.5353H40.4744C40.5705 30.5328 40.642 30.4341 40.6075 30.3404Z" fill="white"/>
<path d="M60.744 32L66.648 16.544H70.824L76.728 32H72.696L71.304 28.496H66.144L64.776 32H60.744ZM66.672 25.64H70.776L68.712 20.264L66.672 25.64ZM78.6849 32V20.624H82.3569L82.4769 21.68C82.9729 21.376 83.5889 21.104 84.3249 20.864C85.0609 20.608 85.7969 20.448 86.5329 20.384V23.288C86.1169 23.336 85.6529 23.416 85.1409 23.528C84.6449 23.624 84.1649 23.744 83.7009 23.888C83.2529 24.032 82.8689 24.184 82.5489 24.344V32H78.6849ZM95.1176 32.24C94.3496 32.24 93.6776 32.144 93.1016 31.952C92.5256 31.744 92.0056 31.44 91.5416 31.04L91.3496 32H87.9896V15.824H91.8536V21.152C92.2856 20.896 92.7736 20.704 93.3176 20.576C93.8616 20.448 94.4216 20.384 94.9976 20.384C96.6616 20.384 97.9736 20.848 98.9336 21.776C99.8936 22.688 100.374 24.168 100.374 26.216C100.374 28.264 99.9016 29.784 98.9576 30.776C98.0136 31.752 96.7336 32.24 95.1176 32.24ZM94.0136 29.432C94.8776 29.432 95.4936 29.176 95.8616 28.664C96.2456 28.136 96.4376 27.328 96.4376 26.24C96.4376 25.12 96.2376 24.336 95.8376 23.888C95.4536 23.44 94.8456 23.216 94.0136 23.216C93.1016 23.216 92.3816 23.456 91.8536 23.936V28.568C92.4296 29.144 93.1496 29.432 94.0136 29.432ZM102.633 18.824V15.92H106.833V18.824H102.633ZM102.945 32V23.48H101.265L101.601 20.624H106.809V32H102.945ZM113.951 32.24C112.543 32.24 111.503 31.88 110.831 31.16C110.175 30.44 109.847 29.448 109.847 28.184V23.552H108.311V20.624H109.847V18.248L113.711 17.216V20.624H116.471L116.303 23.552H113.711V27.92C113.711 28.464 113.847 28.848 114.119 29.072C114.391 29.28 114.799 29.384 115.343 29.384C115.807 29.384 116.279 29.304 116.759 29.144V31.76C116.007 32.08 115.071 32.24 113.951 32.24ZM118.247 32V20.624H121.919L122.039 21.68C122.535 21.376 123.151 21.104 123.887 20.864C124.623 20.608 125.359 20.448 126.095 20.384V23.288C125.679 23.336 125.215 23.416 124.703 23.528C124.207 23.624 123.727 23.744 123.263 23.888C122.815 24.032 122.431 24.184 122.111 24.344V32H118.247ZM131.464 32.24C130.12 32.24 129.072 31.864 128.32 31.112C127.568 30.344 127.192 29.232 127.192 27.776V20.624H131.056V27.56C131.056 28.2 131.208 28.672 131.512 28.976C131.832 29.264 132.304 29.408 132.928 29.408C133.392 29.408 133.832 29.312 134.248 29.12C134.664 28.928 135.008 28.688 135.28 28.4V20.624H139.144V32H135.544L135.424 31.04C134.96 31.392 134.4 31.68 133.744 31.904C133.088 32.128 132.328 32.24 131.464 32.24ZM141.591 32V20.624H145.167L145.287 21.632C145.799 21.264 146.375 20.968 147.015 20.744C147.655 20.504 148.343 20.384 149.079 20.384C149.847 20.384 150.447 20.504 150.879 20.744C151.311 20.968 151.647 21.288 151.887 21.704C152.415 21.32 153.007 21.008 153.663 20.768C154.335 20.512 155.119 20.384 156.015 20.384C157.343 20.384 158.319 20.728 158.943 21.416C159.567 22.104 159.879 23.152 159.879 24.56V32H156.063V25.016C156.063 24.392 155.927 23.944 155.655 23.672C155.399 23.384 154.975 23.24 154.383 23.24C154.015 23.24 153.655 23.32 153.303 23.48C152.951 23.624 152.655 23.832 152.415 24.104C152.447 24.28 152.463 24.448 152.463 24.608C152.479 24.768 152.487 24.96 152.487 25.184V32H148.887V24.968C148.887 24.392 148.783 23.96 148.575 23.672C148.383 23.384 148.007 23.24 147.447 23.24C147.047 23.24 146.671 23.344 146.319 23.552C145.967 23.76 145.647 24 145.359 24.272V32H141.591ZM174.596 32.24C172.084 32.24 170.172 31.6 168.86 30.32C167.548 29.04 166.892 27.048 166.892 24.344C166.892 21.48 167.548 19.424 168.86 18.176C170.172 16.928 172.084 16.304 174.596 16.304C177.108 16.304 179.02 16.928 180.332 18.176C181.644 19.424 182.3 21.48 182.3 24.344C182.3 27.048 181.644 29.04 180.332 30.32C179.02 31.6 177.108 32.24 174.596 32.24ZM174.596 28.952C175.892 28.952 176.836 28.584 177.428 27.848C178.036 27.096 178.34 25.928 178.34 24.344C178.34 22.616 178.036 21.4 177.428 20.696C176.836 19.976 175.892 19.616 174.596 19.616C173.284 19.616 172.324 19.976 171.716 20.696C171.124 21.4 170.828 22.616 170.828 24.344C170.828 25.928 171.124 27.096 171.716 27.848C172.324 28.584 173.284 28.952 174.596 28.952ZM184.271 32V20.624H187.871L187.991 21.608C188.455 21.288 189.039 21.008 189.743 20.768C190.447 20.512 191.199 20.384 191.999 20.384C193.471 20.384 194.543 20.736 195.215 21.44C195.887 22.144 196.223 23.232 196.223 24.704V32H192.359V25.016C192.359 24.376 192.223 23.92 191.951 23.648C191.679 23.376 191.191 23.24 190.487 23.24C190.071 23.24 189.647 23.336 189.215 23.528C188.783 23.72 188.423 23.96 188.135 24.248V32H184.271ZM204.5 32.24C202.516 32.24 200.924 31.752 199.724 30.776C198.524 29.784 197.924 28.296 197.924 26.312C197.924 24.504 198.42 23.064 199.412 21.992C200.404 20.92 201.892 20.384 203.876 20.384C205.684 20.384 207.084 20.848 208.076 21.776C209.068 22.704 209.564 23.952 209.564 25.52V27.56H201.5C201.676 28.312 202.084 28.84 202.724 29.144C203.38 29.432 204.268 29.576 205.388 29.576C206.012 29.576 206.644 29.52 207.284 29.408C207.94 29.296 208.484 29.152 208.916 28.976V31.496C208.372 31.752 207.724 31.936 206.972 32.048C206.22 32.176 205.396 32.24 204.5 32.24ZM201.5 25.328H206.204V24.824C206.204 24.264 206.036 23.824 205.7 23.504C205.364 23.168 204.796 23 203.996 23C203.068 23 202.42 23.192 202.052 23.576C201.684 23.944 201.5 24.528 201.5 25.328Z" fill="white"/>
</svg>
