<svg width="32" height="32" viewBox="0 0 32 32" fill="none" xmlns="http://www.w3.org/2000/svg">
<rect width="32" height="32" fill="#1E1E1E"/>
<g clip-path="url(#clip0_1_1399)">
<path d="M9.71821 7.93166L15.9943 4.33333L22.2703 7.93166L19.9154 9.19666L15.9943 6.959L11.9712 9.19666L9.71821 7.93166ZM22.1737 12.4017L19.9154 11.1367L15.9943 13.3743L11.9712 11.1367L9.71285 12.4017V15.0273L13.6394 17.265V21.836L15.8977 23.1967L18.156 21.836V17.366L22.0826 15.1283V12.407H22.1737V12.4017ZM22.1737 19.5983V16.9727L19.9154 18.3333V20.858L22.1737 19.5983ZM23.842 20.47L19.9208 22.7077V25.3333L26.2022 21.735V14.5437L23.8474 16L23.842 20.47ZM21.5837 10.1693L23.842 11.53V14.1557L26.1003 12.795V10.1693L23.842 8.80865L21.5837 10.1693ZM13.6394 23.6803V26.306L15.8977 27.6667L18.156 26.306V23.6803L15.8977 25.041L13.6394 23.6803ZM9.71285 19.5983L11.9712 20.8633V18.2377L9.71285 16.877V19.5983ZM13.6394 10.1693L15.8977 11.53L18.2526 10.1693L15.9943 8.80865L13.6394 10.1693ZM8.04997 11.53L10.4048 10.1693L8.04997 8.80865L5.79167 10.1693V12.795L8.04997 14.1557V11.53ZM8.04997 16L5.79167 14.6393V21.8307L12.0731 25.429V22.8033L8.14652 20.5657V15.9947L8.04997 16Z" fill="#F0B90B"/>
</g>
<defs>
<clipPath id="clip0_1_1399">
<rect width="23.3333" height="23.3333" fill="white" transform="translate(4.33333 4.33333)"/>
</clipPath>
</defs>
</svg>
