<svg width="265" height="48" viewBox="0 0 265 48" fill="none" xmlns="http://www.w3.org/2000/svg">
<rect width="265" height="48" rx="18" fill="#1E1E1E"/>
<path d="M24.9234 13.6264L32.9926 9L41.0618 13.6264L38.0341 15.2528L32.9926 12.3759L27.8201 15.2528L24.9234 13.6264ZM40.9377 19.3736L38.0341 17.7472L32.9926 20.6241L27.8201 17.7472L24.9165 19.3736V22.7494L29.9649 25.6264V31.5034L32.8685 33.2528L35.772 31.5034V25.7563L40.8204 22.8793V19.3804H40.9377V19.3736ZM40.9377 28.6264V25.2506L38.0341 27V30.246L40.9377 28.6264ZM43.0826 29.7472L38.041 32.6241V36L46.1171 31.3736V22.1276L43.0895 24L43.0826 29.7472ZM40.179 16.5034L43.0826 18.2528V21.6287L45.9861 19.8793V16.5034L43.0826 14.754L40.179 16.5034ZM29.9649 33.8747V37.2506L32.8685 39L35.772 37.2506V33.8747L32.8685 35.6241L29.9649 33.8747ZM24.9165 28.6264L27.8201 30.2528V26.877L24.9165 25.1276V28.6264ZM29.9649 16.5034L32.8685 18.2528L35.8961 16.5034L32.9926 14.754L29.9649 16.5034ZM22.7785 18.2528L25.8062 16.5034L22.7785 14.754L19.875 16.5034V19.8793L22.7785 21.6287V18.2528ZM22.7785 24L19.875 22.2506V31.4966L27.9511 36.123V32.7472L22.9027 29.8702V23.9932L22.7785 24Z" fill="#F0B90B"/>
<path d="M61.224 32V16.544H69.384C70.936 16.544 72.104 16.912 72.888 17.648C73.688 18.384 74.088 19.424 74.088 20.768C74.088 21.584 73.928 22.272 73.608 22.832C73.304 23.376 72.896 23.8 72.384 24.104C73.088 24.36 73.64 24.736 74.04 25.232C74.44 25.728 74.64 26.472 74.64 27.464C74.64 28.936 74.208 30.064 73.344 30.848C72.48 31.616 71.24 32 69.624 32H61.224ZM65.088 22.832H68.232C68.904 22.832 69.392 22.68 69.696 22.376C70 22.072 70.152 21.648 70.152 21.104C70.152 20.512 70 20.072 69.696 19.784C69.392 19.48 68.84 19.328 68.04 19.328H65.088V22.832ZM65.088 29.24H68.616C69.32 29.24 69.84 29.096 70.176 28.808C70.528 28.52 70.704 28.008 70.704 27.272C70.704 26.68 70.536 26.24 70.2 25.952C69.864 25.648 69.288 25.496 68.472 25.496H65.088V29.24ZM76.599 32V16.544H79.911L86.487 25.784V16.544H90.375V32H87.039L80.463 22.784V32H76.599ZM92.8178 32V16.544H100.978C102.53 16.544 103.698 16.912 104.482 17.648C105.282 18.384 105.682 19.424 105.682 20.768C105.682 21.584 105.522 22.272 105.202 22.832C104.898 23.376 104.49 23.8 103.978 24.104C104.682 24.36 105.234 24.736 105.634 25.232C106.034 25.728 106.234 26.472 106.234 27.464C106.234 28.936 105.802 30.064 104.938 30.848C104.074 31.616 102.834 32 101.218 32H92.8178ZM96.6818 22.832H99.8258C100.498 22.832 100.986 22.68 101.29 22.376C101.594 22.072 101.746 21.648 101.746 21.104C101.746 20.512 101.594 20.072 101.29 19.784C100.986 19.48 100.434 19.328 99.6338 19.328H96.6818V22.832ZM96.6818 29.24H100.21C100.914 29.24 101.434 29.096 101.77 28.808C102.122 28.52 102.298 28.008 102.298 27.272C102.298 26.68 102.13 26.24 101.794 25.952C101.458 25.648 100.882 25.496 100.066 25.496H96.6818V29.24ZM118.269 32.24C117.245 32.24 116.285 32.16 115.389 32C114.509 31.856 113.749 31.64 113.109 31.352V28.064C113.813 28.368 114.589 28.616 115.437 28.808C116.301 29 117.117 29.096 117.885 29.096C118.845 29.096 119.557 29.008 120.021 28.832C120.501 28.656 120.741 28.272 120.741 27.68C120.741 27.28 120.621 26.96 120.381 26.72C120.157 26.48 119.781 26.272 119.253 26.096C118.741 25.904 118.037 25.68 117.141 25.424C116.085 25.104 115.245 24.752 114.621 24.368C113.997 23.968 113.549 23.488 113.277 22.928C113.005 22.368 112.869 21.68 112.869 20.864C112.869 19.392 113.397 18.264 114.453 17.48C115.509 16.696 117.069 16.304 119.133 16.304C120.029 16.304 120.901 16.376 121.749 16.52C122.597 16.648 123.285 16.8 123.813 16.976V20.288C123.125 20.016 122.429 19.816 121.725 19.688C121.037 19.56 120.365 19.496 119.709 19.496C118.845 19.496 118.141 19.576 117.597 19.736C117.069 19.896 116.805 20.264 116.805 20.84C116.805 21.176 116.901 21.448 117.093 21.656C117.285 21.848 117.613 22.024 118.077 22.184C118.557 22.344 119.205 22.536 120.021 22.76C121.285 23.096 122.253 23.504 122.925 23.984C123.597 24.448 124.061 24.992 124.317 25.616C124.573 26.224 124.701 26.912 124.701 27.68C124.701 29.04 124.173 30.144 123.117 30.992C122.061 31.824 120.445 32.24 118.269 32.24ZM126.662 32V20.624H130.238L130.358 21.632C130.87 21.264 131.446 20.968 132.086 20.744C132.726 20.504 133.414 20.384 134.15 20.384C134.918 20.384 135.518 20.504 135.95 20.744C136.382 20.968 136.718 21.288 136.958 21.704C137.486 21.32 138.078 21.008 138.734 20.768C139.406 20.512 140.19 20.384 141.086 20.384C142.414 20.384 143.39 20.728 144.014 21.416C144.638 22.104 144.95 23.152 144.95 24.56V32H141.134V25.016C141.134 24.392 140.998 23.944 140.726 23.672C140.47 23.384 140.046 23.24 139.454 23.24C139.086 23.24 138.726 23.32 138.374 23.48C138.022 23.624 137.726 23.832 137.486 24.104C137.518 24.28 137.534 24.448 137.534 24.608C137.549 24.768 137.557 24.96 137.557 25.184V32H133.958V24.968C133.958 24.392 133.854 23.96 133.646 23.672C133.454 23.384 133.078 23.24 132.518 23.24C132.118 23.24 131.742 23.344 131.39 23.552C131.038 23.76 130.718 24 130.43 24.272V32H126.662ZM150.487 32.24C149.767 32.24 149.095 32.112 148.471 31.856C147.863 31.6 147.375 31.208 147.007 30.68C146.639 30.136 146.455 29.464 146.455 28.664C146.455 27.496 146.847 26.584 147.631 25.928C148.431 25.256 149.623 24.92 151.207 24.92H154.375V24.656C154.375 24.08 154.183 23.672 153.799 23.432C153.415 23.176 152.695 23.048 151.639 23.048C150.343 23.048 149.071 23.248 147.823 23.648V21.152C148.383 20.928 149.063 20.744 149.863 20.6C150.679 20.456 151.535 20.384 152.431 20.384C154.191 20.384 155.567 20.744 156.559 21.464C157.567 22.184 158.071 23.328 158.071 24.896V32H154.687L154.495 31.04C154.079 31.424 153.543 31.72 152.887 31.928C152.247 32.136 151.447 32.24 150.487 32.24ZM151.711 29.864C152.319 29.864 152.847 29.76 153.295 29.552C153.743 29.344 154.103 29.08 154.375 28.76V27.152H151.639C150.503 27.152 149.935 27.608 149.935 28.52C149.935 28.936 150.079 29.264 150.367 29.504C150.655 29.744 151.103 29.864 151.711 29.864ZM160.388 32V20.624H164.06L164.18 21.68C164.676 21.376 165.292 21.104 166.028 20.864C166.764 20.608 167.5 20.448 168.236 20.384V23.288C167.82 23.336 167.356 23.416 166.844 23.528C166.348 23.624 165.868 23.744 165.404 23.888C164.956 24.032 164.572 24.184 164.252 24.344V32H160.388ZM174.373 32.24C172.965 32.24 171.925 31.88 171.253 31.16C170.597 30.44 170.269 29.448 170.269 28.184V23.552H168.733V20.624H170.269V18.248L174.133 17.216V20.624H176.893L176.725 23.552H174.133V27.92C174.133 28.464 174.269 28.848 174.541 29.072C174.813 29.28 175.221 29.384 175.765 29.384C176.229 29.384 176.701 29.304 177.181 29.144V31.76C176.429 32.08 175.493 32.24 174.373 32.24ZM191.65 32.24C188.946 32.24 186.882 31.552 185.458 30.176C184.05 28.784 183.346 26.856 183.346 24.392C183.346 21.816 184.034 19.824 185.41 18.416C186.802 17.008 188.874 16.304 191.626 16.304C192.57 16.304 193.41 16.376 194.146 16.52C194.898 16.664 195.618 16.856 196.306 17.096V20.48C194.914 19.904 193.45 19.616 191.914 19.616C190.314 19.616 189.138 20 188.386 20.768C187.65 21.536 187.282 22.744 187.282 24.392C187.282 25.96 187.674 27.112 188.458 27.848C189.242 28.584 190.41 28.952 191.962 28.952C192.714 28.952 193.458 28.888 194.194 28.76C194.93 28.616 195.642 28.4 196.33 28.112V31.52C195.658 31.744 194.946 31.92 194.194 32.048C193.442 32.176 192.594 32.24 191.65 32.24ZM198.287 32V15.824H202.151V21.464C202.583 21.144 203.119 20.888 203.759 20.696C204.399 20.488 205.087 20.384 205.823 20.384C207.343 20.384 208.455 20.744 209.159 21.464C209.879 22.184 210.239 23.288 210.239 24.776V32H206.375V25.04C206.375 24.384 206.239 23.92 205.967 23.648C205.695 23.376 205.207 23.24 204.503 23.24C204.087 23.24 203.663 23.336 203.23 23.528C202.799 23.72 202.439 23.96 202.151 24.248V32H198.287ZM215.76 32.24C215.04 32.24 214.368 32.112 213.744 31.856C213.136 31.6 212.648 31.208 212.28 30.68C211.912 30.136 211.728 29.464 211.728 28.664C211.728 27.496 212.12 26.584 212.904 25.928C213.704 25.256 214.896 24.92 216.48 24.92H219.648V24.656C219.648 24.08 219.456 23.672 219.072 23.432C218.688 23.176 217.968 23.048 216.912 23.048C215.616 23.048 214.344 23.248 213.096 23.648V21.152C213.656 20.928 214.336 20.744 215.136 20.6C215.952 20.456 216.808 20.384 217.704 20.384C219.464 20.384 220.84 20.744 221.832 21.464C222.84 22.184 223.344 23.328 223.344 24.896V32H219.96L219.768 31.04C219.352 31.424 218.816 31.72 218.16 31.928C217.52 32.136 216.72 32.24 215.76 32.24ZM216.984 29.864C217.592 29.864 218.12 29.76 218.568 29.552C219.016 29.344 219.376 29.08 219.648 28.76V27.152H216.912C215.776 27.152 215.208 27.608 215.208 28.52C215.208 28.936 215.352 29.264 215.64 29.504C215.928 29.744 216.376 29.864 216.984 29.864ZM226.43 18.824V15.92H230.63V18.824H226.43ZM226.742 32V23.48H225.062L225.398 20.624H230.605V32H226.742ZM233.068 32V20.624H236.668L236.788 21.608C237.252 21.288 237.836 21.008 238.54 20.768C239.244 20.512 239.996 20.384 240.796 20.384C242.268 20.384 243.34 20.736 244.012 21.44C244.684 22.144 245.02 23.232 245.02 24.704V32H241.156V25.016C241.156 24.376 241.02 23.92 240.748 23.648C240.476 23.376 239.988 23.24 239.284 23.24C238.868 23.24 238.444 23.336 238.012 23.528C237.58 23.72 237.22 23.96 236.932 24.248V32H233.068Z" fill="white"/>
</svg>
