<svg width="48" height="48" viewBox="0 0 48 48" fill="none" xmlns="http://www.w3.org/2000/svg">
<rect width="48" height="48" rx="18" fill="#1E1E1E"/>
<path d="M15.9234 13.6264L23.9926 9L32.0618 13.6264L29.0341 15.2528L23.9926 12.3759L18.8201 15.2528L15.9234 13.6264ZM31.9377 19.3736L29.0341 17.7472L23.9926 20.6241L18.8201 17.7472L15.9165 19.3736V22.7494L20.9649 25.6264V31.5034L23.8685 33.2528L26.772 31.5034V25.7563L31.8204 22.8793V19.3804H31.9377V19.3736ZM31.9377 28.6264V25.2506L29.0341 27V30.246L31.9377 28.6264ZM34.0826 29.7472L29.041 32.6241V36L37.1171 31.3736V22.1276L34.0895 24L34.0826 29.7472ZM31.179 16.5034L34.0826 18.2528V21.6287L36.9861 19.8793V16.5034L34.0826 14.754L31.179 16.5034ZM20.9649 33.8747V37.2506L23.8685 39L26.772 37.2506V33.8747L23.8685 35.6241L20.9649 33.8747ZM15.9165 28.6264L18.8201 30.2528V26.877L15.9165 25.1276V28.6264ZM20.9649 16.5034L23.8685 18.2528L26.8961 16.5034L23.9926 14.754L20.9649 16.5034ZM13.7785 18.2528L16.8062 16.5034L13.7785 14.754L10.875 16.5034V19.8793L13.7785 21.6287V18.2528ZM13.7785 24L10.875 22.2506V31.4966L18.9511 36.123V32.7472L13.9027 29.8702V23.9932L13.7785 24Z" fill="#F0B90B"/>
</svg>
