<svg width="233" height="48" viewBox="0 0 233 48" fill="none" xmlns="http://www.w3.org/2000/svg">
<rect width="233" height="48" rx="18" fill="#83DCFB"/>
<path d="M39.6964 34.3126H23.625V18.2412H27.6429V30.2948H39.6964V34.3126Z" fill="black"/>
<path d="M39.6969 20.9196C41.1759 20.9196 42.3752 19.7204 42.3752 18.2411C42.3752 16.7617 41.1759 15.5625 39.6969 15.5625C38.2174 15.5625 37.0181 16.7617 37.0181 18.2411C37.0181 19.7204 38.2174 20.9196 39.6969 20.9196Z" fill="black"/>
<path d="M61.224 32V16.544H65.088V29.024H72.384V32H61.224ZM73.8045 18.824V15.92H78.0045V18.824H73.8045ZM74.1165 32V23.48H72.4365L72.7725 20.624H77.9805V32H74.1165ZM80.4428 32V20.624H84.0428L84.1628 21.608C84.6268 21.288 85.2108 21.008 85.9148 20.768C86.6188 20.512 87.3708 20.384 88.1708 20.384C89.6428 20.384 90.7148 20.736 91.3868 21.44C92.0588 22.144 92.3948 23.232 92.3948 24.704V32H88.5308V25.016C88.5308 24.376 88.3948 23.92 88.1228 23.648C87.8508 23.376 87.3628 23.24 86.6588 23.24C86.2428 23.24 85.8188 23.336 85.3867 23.528C84.9548 23.72 84.5948 23.96 84.3068 24.248V32H80.4428ZM100.672 32.24C98.6876 32.24 97.0956 31.752 95.8956 30.776C94.6956 29.784 94.0956 28.296 94.0956 26.312C94.0956 24.504 94.5916 23.064 95.5836 21.992C96.5756 20.92 98.0636 20.384 100.048 20.384C101.856 20.384 103.256 20.848 104.248 21.776C105.24 22.704 105.736 23.952 105.736 25.52V27.56H97.6716C97.8476 28.312 98.2556 28.84 98.8956 29.144C99.5516 29.432 100.44 29.576 101.56 29.576C102.184 29.576 102.816 29.52 103.456 29.408C104.112 29.296 104.656 29.152 105.088 28.976V31.496C104.544 31.752 103.896 31.936 103.144 32.048C102.392 32.176 101.568 32.24 100.672 32.24ZM97.6716 25.328H102.376V24.824C102.376 24.264 102.208 23.824 101.872 23.504C101.536 23.168 100.968 23 100.168 23C99.2396 23 98.5916 23.192 98.2236 23.576C97.8556 23.944 97.6716 24.528 97.6716 25.328ZM111.253 32.24C110.533 32.24 109.861 32.112 109.237 31.856C108.629 31.6 108.141 31.208 107.773 30.68C107.405 30.136 107.221 29.464 107.221 28.664C107.221 27.496 107.613 26.584 108.397 25.928C109.197 25.256 110.389 24.92 111.973 24.92H115.141V24.656C115.141 24.08 114.949 23.672 114.565 23.432C114.181 23.176 113.461 23.048 112.405 23.048C111.109 23.048 109.837 23.248 108.589 23.648V21.152C109.149 20.928 109.829 20.744 110.629 20.6C111.445 20.456 112.301 20.384 113.197 20.384C114.957 20.384 116.333 20.744 117.325 21.464C118.333 22.184 118.837 23.328 118.837 24.896V32H115.453L115.261 31.04C114.845 31.424 114.309 31.72 113.653 31.928C113.013 32.136 112.213 32.24 111.253 32.24ZM112.477 29.864C113.085 29.864 113.613 29.76 114.061 29.552C114.509 29.344 114.869 29.08 115.141 28.76V27.152H112.405C111.269 27.152 110.701 27.608 110.701 28.52C110.701 28.936 110.845 29.264 111.133 29.504C111.421 29.744 111.869 29.864 112.477 29.864ZM126.31 32V16.544H130.126L134.326 25.112L138.502 16.544H142.294V32H138.43V23.12L135.382 29.36H133.246L130.174 23.12V32H126.31ZM148.284 32.24C147.564 32.24 146.892 32.112 146.268 31.856C145.66 31.6 145.172 31.208 144.804 30.68C144.436 30.136 144.252 29.464 144.252 28.664C144.252 27.496 144.644 26.584 145.428 25.928C146.228 25.256 147.42 24.92 149.004 24.92H152.172V24.656C152.172 24.08 151.98 23.672 151.596 23.432C151.212 23.176 150.492 23.048 149.436 23.048C148.14 23.048 146.868 23.248 145.62 23.648V21.152C146.18 20.928 146.86 20.744 147.66 20.6C148.476 20.456 149.332 20.384 150.228 20.384C151.988 20.384 153.364 20.744 154.356 21.464C155.364 22.184 155.868 23.328 155.868 24.896V32H152.484L152.292 31.04C151.876 31.424 151.34 31.72 150.684 31.928C150.044 32.136 149.244 32.24 148.284 32.24ZM149.508 29.864C150.116 29.864 150.644 29.76 151.092 29.552C151.54 29.344 151.9 29.08 152.172 28.76V27.152H149.436C148.3 27.152 147.732 27.608 147.732 28.52C147.732 28.936 147.876 29.264 148.164 29.504C148.452 29.744 148.9 29.864 149.508 29.864ZM158.953 18.824V15.92H163.153V18.824H158.953ZM159.265 32V23.48H157.585L157.921 20.624H163.129V32H159.265ZM165.591 32V20.624H169.191L169.311 21.608C169.775 21.288 170.359 21.008 171.063 20.768C171.767 20.512 172.519 20.384 173.319 20.384C174.791 20.384 175.863 20.736 176.535 21.44C177.207 22.144 177.543 23.232 177.543 24.704V32H173.679V25.016C173.679 24.376 173.543 23.92 173.271 23.648C172.999 23.376 172.511 23.24 171.807 23.24C171.391 23.24 170.967 23.336 170.535 23.528C170.103 23.72 169.743 23.96 169.455 24.248V32H165.591ZM179.865 32V20.624H183.465L183.585 21.608C184.049 21.288 184.633 21.008 185.337 20.768C186.041 20.512 186.793 20.384 187.593 20.384C189.065 20.384 190.137 20.736 190.809 21.44C191.481 22.144 191.817 23.232 191.817 24.704V32H187.953V25.016C187.953 24.376 187.817 23.92 187.545 23.648C187.273 23.376 186.785 23.24 186.081 23.24C185.665 23.24 185.241 23.336 184.809 23.528C184.377 23.72 184.017 23.96 183.729 24.248V32H179.865ZM200.093 32.24C198.109 32.24 196.517 31.752 195.317 30.776C194.117 29.784 193.517 28.296 193.517 26.312C193.517 24.504 194.013 23.064 195.005 21.992C195.997 20.92 197.485 20.384 199.469 20.384C201.277 20.384 202.677 20.848 203.669 21.776C204.661 22.704 205.157 23.952 205.157 25.52V27.56H197.093C197.269 28.312 197.677 28.84 198.317 29.144C198.973 29.432 199.861 29.576 200.981 29.576C201.605 29.576 202.237 29.52 202.877 29.408C203.533 29.296 204.077 29.152 204.509 28.976V31.496C203.965 31.752 203.317 31.936 202.565 32.048C201.813 32.176 200.989 32.24 200.093 32.24ZM197.093 25.328H201.797V24.824C201.797 24.264 201.629 23.824 201.293 23.504C200.957 23.168 200.389 23 199.589 23C198.661 23 198.013 23.192 197.645 23.576C197.277 23.944 197.093 24.528 197.093 25.328ZM211.802 32.24C210.394 32.24 209.354 31.88 208.682 31.16C208.026 30.44 207.698 29.448 207.698 28.184V23.552H206.162V20.624H207.698V18.248L211.562 17.216V20.624H214.322L214.154 23.552H211.562V27.92C211.562 28.464 211.698 28.848 211.97 29.072C212.242 29.28 212.65 29.384 213.194 29.384C213.658 29.384 214.13 29.304 214.61 29.144V31.76C213.858 32.08 212.922 32.24 211.802 32.24Z" fill="black"/>
</svg>
