<svg width="227" height="48" viewBox="0 0 227 48" fill="none" xmlns="http://www.w3.org/2000/svg">
<rect width="227" height="48" rx="18" fill="#0052FF"/>
<g clip-path="url(#clip0_902_14762)">
<path fill-rule="evenodd" clip-rule="evenodd" d="M33 33.375C38.1777 33.375 42.375 29.1777 42.375 24C42.375 18.8223 38.1777 14.625 33 14.625C27.8223 14.625 23.625 18.8223 23.625 24C23.625 29.1777 27.8223 33.375 33 33.375ZM33 39C41.2843 39 48 32.2843 48 24C48 15.7157 41.2843 9 33 9C24.7157 9 18 15.7157 18 24C18 32.2843 24.7157 39 33 39Z" fill="white"/>
<path fill-rule="evenodd" clip-rule="evenodd" d="M35.8125 24.9375H18V23.0625H35.8125V24.9375Z" fill="white"/>
</g>
<path d="M61.224 32V16.544H69.384C70.936 16.544 72.104 16.912 72.888 17.648C73.688 18.384 74.088 19.424 74.088 20.768C74.088 21.584 73.928 22.272 73.608 22.832C73.304 23.376 72.896 23.8 72.384 24.104C73.088 24.36 73.64 24.736 74.04 25.232C74.44 25.728 74.64 26.472 74.64 27.464C74.64 28.936 74.208 30.064 73.344 30.848C72.48 31.616 71.24 32 69.624 32H61.224ZM65.088 22.832H68.232C68.904 22.832 69.392 22.68 69.696 22.376C70 22.072 70.152 21.648 70.152 21.104C70.152 20.512 70 20.072 69.696 19.784C69.392 19.48 68.84 19.328 68.04 19.328H65.088V22.832ZM65.088 29.24H68.616C69.32 29.24 69.84 29.096 70.176 28.808C70.528 28.52 70.704 28.008 70.704 27.272C70.704 26.68 70.536 26.24 70.2 25.952C69.864 25.648 69.288 25.496 68.472 25.496H65.088V29.24ZM80.151 32.24C79.431 32.24 78.759 32.112 78.135 31.856C77.527 31.6 77.039 31.208 76.671 30.68C76.303 30.136 76.119 29.464 76.119 28.664C76.119 27.496 76.511 26.584 77.295 25.928C78.095 25.256 79.287 24.92 80.871 24.92H84.039V24.656C84.039 24.08 83.847 23.672 83.463 23.432C83.079 23.176 82.359 23.048 81.303 23.048C80.007 23.048 78.735 23.248 77.487 23.648V21.152C78.047 20.928 78.727 20.744 79.527 20.6C80.343 20.456 81.199 20.384 82.095 20.384C83.855 20.384 85.231 20.744 86.223 21.464C87.231 22.184 87.735 23.328 87.735 24.896V32H84.351L84.159 31.04C83.743 31.424 83.207 31.72 82.551 31.928C81.911 32.136 81.111 32.24 80.151 32.24ZM81.375 29.864C81.983 29.864 82.511 29.76 82.959 29.552C83.407 29.344 83.767 29.08 84.039 28.76V27.152H81.303C80.167 27.152 79.599 27.608 79.599 28.52C79.599 28.936 79.743 29.264 80.031 29.504C80.319 29.744 80.767 29.864 81.375 29.864ZM94.2761 32.24C93.3641 32.24 92.5001 32.176 91.6841 32.048C90.8681 31.92 90.2201 31.76 89.7401 31.568V28.616C90.3001 28.856 90.9481 29.04 91.6841 29.168C92.4201 29.296 93.0761 29.36 93.6521 29.36C94.3401 29.36 94.8361 29.328 95.1401 29.264C95.4601 29.2 95.6201 29.024 95.6201 28.736C95.6201 28.416 95.3641 28.176 94.8521 28.016C94.3401 27.856 93.6361 27.624 92.7401 27.32C91.7001 26.952 90.9081 26.528 90.3641 26.048C89.8361 25.552 89.5721 24.824 89.5721 23.864C89.5721 22.744 89.9881 21.888 90.8201 21.296C91.6681 20.688 93.0121 20.384 94.8521 20.384C95.5721 20.384 96.2841 20.44 96.9881 20.552C97.6921 20.664 98.2681 20.792 98.7161 20.936V23.84C98.2681 23.632 97.7561 23.48 97.1801 23.384C96.6041 23.288 96.0841 23.24 95.6201 23.24C95.0281 23.24 94.5241 23.28 94.1081 23.36C93.7081 23.424 93.5081 23.592 93.5081 23.864C93.5081 24.168 93.7321 24.384 94.1801 24.512C94.6281 24.624 95.2761 24.816 96.1241 25.088C97.0201 25.36 97.7161 25.656 98.2121 25.976C98.7081 26.28 99.0601 26.648 99.2681 27.08C99.4761 27.512 99.5801 28.056 99.5801 28.712C99.5801 29.848 99.1321 30.72 98.2361 31.328C97.3401 31.936 96.0201 32.24 94.2761 32.24ZM107.281 32.24C105.297 32.24 103.705 31.752 102.505 30.776C101.305 29.784 100.705 28.296 100.705 26.312C100.705 24.504 101.201 23.064 102.193 21.992C103.185 20.92 104.673 20.384 106.657 20.384C108.465 20.384 109.865 20.848 110.857 21.776C111.849 22.704 112.345 23.952 112.345 25.52V27.56H104.281C104.457 28.312 104.865 28.84 105.505 29.144C106.161 29.432 107.049 29.576 108.169 29.576C108.793 29.576 109.425 29.52 110.065 29.408C110.721 29.296 111.265 29.152 111.697 28.976V31.496C111.153 31.752 110.505 31.936 109.753 32.048C109.001 32.176 108.177 32.24 107.281 32.24ZM104.281 25.328H108.985V24.824C108.985 24.264 108.817 23.824 108.481 23.504C108.145 23.168 107.577 23 106.777 23C105.849 23 105.201 23.192 104.833 23.576C104.465 23.944 104.281 24.528 104.281 25.328ZM119.466 32V16.544H123.282L127.482 25.112L131.658 16.544H135.45V32H131.586V23.12L128.538 29.36H126.402L123.33 23.12V32H119.466ZM141.44 32.24C140.72 32.24 140.048 32.112 139.424 31.856C138.816 31.6 138.328 31.208 137.96 30.68C137.592 30.136 137.408 29.464 137.408 28.664C137.408 27.496 137.8 26.584 138.584 25.928C139.384 25.256 140.576 24.92 142.16 24.92H145.328V24.656C145.328 24.08 145.136 23.672 144.752 23.432C144.368 23.176 143.648 23.048 142.592 23.048C141.296 23.048 140.024 23.248 138.776 23.648V21.152C139.336 20.928 140.016 20.744 140.816 20.6C141.632 20.456 142.488 20.384 143.384 20.384C145.144 20.384 146.52 20.744 147.512 21.464C148.52 22.184 149.024 23.328 149.024 24.896V32H145.64L145.448 31.04C145.032 31.424 144.496 31.72 143.84 31.928C143.2 32.136 142.4 32.24 141.44 32.24ZM142.664 29.864C143.272 29.864 143.8 29.76 144.248 29.552C144.696 29.344 145.056 29.08 145.328 28.76V27.152H142.592C141.456 27.152 140.888 27.608 140.888 28.52C140.888 28.936 141.032 29.264 141.32 29.504C141.608 29.744 142.056 29.864 142.664 29.864ZM152.109 18.824V15.92H156.309V18.824H152.109ZM152.421 32V23.48H150.741L151.077 20.624H156.285V32H152.421ZM158.747 32V20.624H162.347L162.467 21.608C162.931 21.288 163.515 21.008 164.219 20.768C164.923 20.512 165.675 20.384 166.475 20.384C167.947 20.384 169.019 20.736 169.691 21.44C170.363 22.144 170.699 23.232 170.699 24.704V32H166.835V25.016C166.835 24.376 166.699 23.92 166.427 23.648C166.155 23.376 165.667 23.24 164.963 23.24C164.547 23.24 164.123 23.336 163.691 23.528C163.259 23.72 162.899 23.96 162.611 24.248V32H158.747ZM173.021 32V20.624H176.621L176.741 21.608C177.205 21.288 177.789 21.008 178.493 20.768C179.197 20.512 179.949 20.384 180.749 20.384C182.221 20.384 183.293 20.736 183.965 21.44C184.637 22.144 184.973 23.232 184.973 24.704V32H181.109V25.016C181.109 24.376 180.973 23.92 180.701 23.648C180.429 23.376 179.941 23.24 179.237 23.24C178.821 23.24 178.397 23.336 177.965 23.528C177.533 23.72 177.173 23.96 176.885 24.248V32H173.021ZM193.25 32.24C191.266 32.24 189.674 31.752 188.474 30.776C187.274 29.784 186.674 28.296 186.674 26.312C186.674 24.504 187.17 23.064 188.162 21.992C189.154 20.92 190.642 20.384 192.626 20.384C194.434 20.384 195.834 20.848 196.826 21.776C197.818 22.704 198.314 23.952 198.314 25.52V27.56H190.25C190.426 28.312 190.834 28.84 191.474 29.144C192.13 29.432 193.018 29.576 194.138 29.576C194.762 29.576 195.394 29.52 196.034 29.408C196.69 29.296 197.234 29.152 197.666 28.976V31.496C197.122 31.752 196.474 31.936 195.722 32.048C194.97 32.176 194.146 32.24 193.25 32.24ZM190.25 25.328H194.954V24.824C194.954 24.264 194.786 23.824 194.45 23.504C194.114 23.168 193.546 23 192.746 23C191.818 23 191.17 23.192 190.802 23.576C190.434 23.944 190.25 24.528 190.25 25.328ZM204.959 32.24C203.551 32.24 202.511 31.88 201.839 31.16C201.183 30.44 200.855 29.448 200.855 28.184V23.552H199.319V20.624H200.855V18.248L204.719 17.216V20.624H207.479L207.311 23.552H204.719V27.92C204.719 28.464 204.855 28.848 205.127 29.072C205.399 29.28 205.807 29.384 206.351 29.384C206.815 29.384 207.287 29.304 207.767 29.144V31.76C207.015 32.08 206.079 32.24 204.959 32.24Z" fill="white"/>
<defs>
<clipPath id="clip0_902_14762">
<rect width="30" height="30" fill="white" transform="translate(18 9)"/>
</clipPath>
</defs>
</svg>
