<svg width="145" height="48" viewBox="0 0 145 48" fill="none" xmlns="http://www.w3.org/2000/svg">
<rect width="145" height="48" rx="18" fill="#6AD5AA"/>
<path d="M40.632 19.4176H38.1812C37.9015 19.4176 37.6218 19.2997 37.4227 19.0829L36.4273 17.9751C36.1286 17.6592 35.6499 17.6168 35.3133 17.9138C35.2943 17.9326 35.2754 17.9515 35.2517 17.9751L34.3937 18.9273C34.114 19.2432 33.7158 19.4223 33.2986 19.4223H19.8598C19.4805 20.5301 19.2245 21.6803 19.125 22.8494H31.8054C32.0235 22.8494 32.2416 22.7504 32.4027 22.5902L33.5783 21.3645C33.7158 21.2042 33.9339 21.1288 34.1329 21.1288H34.1709C34.3889 21.1288 34.607 21.2278 34.7682 21.3881L35.7636 22.4959C35.9438 22.7127 36.2234 22.8306 36.5221 22.8306H46.875C46.7755 21.6615 46.5384 20.516 46.1402 19.4034H40.6272V19.4176H40.632ZM26.8186 30.029C27.0366 30.029 27.2547 29.93 27.4159 29.7697L28.5915 28.5441C28.729 28.3838 28.9517 28.3083 29.1508 28.3083H29.2125C29.4305 28.3083 29.6486 28.4073 29.8097 28.5676L30.8052 29.6754C31.0043 29.8923 31.265 30.0101 31.5637 30.0101H45.5904C46.126 28.9212 46.5053 27.7521 46.747 26.5641H33.2702C32.9905 26.5641 32.7108 26.4463 32.5354 26.2294L31.54 25.1216C31.4025 24.9613 31.1797 24.8624 30.9427 24.8624C30.7246 24.8624 30.5066 24.9613 30.3644 25.1216L29.5064 26.0739C29.2267 26.3897 28.8285 26.5689 28.3924 26.5689H19.3525C19.5706 27.7568 19.9688 28.9259 20.4855 30.0337H26.8186V30.029ZM36.7686 15.6746C36.9866 15.6746 37.2047 15.5756 37.3659 15.4153L38.5415 14.1897C38.6789 14.0294 38.9017 13.954 39.1008 13.954H39.1625C39.3805 13.954 39.5986 14.053 39.7408 14.2132L40.7363 15.321C40.9353 15.5379 41.1961 15.6557 41.49 15.6557H44.1588C39.5417 9.53686 30.8194 8.3112 24.6712 12.9027C23.6189 13.6947 22.6803 14.6045 21.9028 15.6557H36.7733L36.7686 15.6746ZM31.3978 33.4514H27.7524C27.4728 33.4514 27.1931 33.3336 27.0177 33.1167L26.0222 32.0089C25.7236 31.6931 25.2258 31.6506 24.9082 31.9476C24.8893 31.9665 24.8703 31.9853 24.8466 32.0089L23.9886 32.98C23.7089 33.2959 23.3107 33.475 22.8936 33.475H22.832C28.0653 39.0565 36.8871 39.3723 42.4997 34.168C42.7367 33.9511 42.9784 33.7107 43.1965 33.475L31.3978 33.4514Z" fill="black"/>
<path d="M60.744 32L66.648 16.544H70.824L76.728 32H72.696L71.304 28.496H66.144L64.776 32H60.744ZM66.672 25.64H70.776L68.712 20.264L66.672 25.64ZM78.6849 37.184V20.624H82.0449L82.2369 21.608C82.7009 21.224 83.2209 20.928 83.7969 20.72C84.3729 20.496 85.0449 20.384 85.8129 20.384C87.4289 20.384 88.7089 20.824 89.6529 21.704C90.5969 22.568 91.0689 24.024 91.0689 26.072C91.0689 28.104 90.5809 29.64 89.6049 30.68C88.6449 31.72 87.3169 32.24 85.6209 32.24C84.4209 32.24 83.3969 31.992 82.5489 31.496V37.184H78.6849ZM84.6369 29.408C86.3009 29.408 87.1329 28.272 87.1329 26C87.1329 24.912 86.9409 24.176 86.5569 23.792C86.1729 23.408 85.5569 23.216 84.7089 23.216C83.8929 23.216 83.1729 23.504 82.5489 24.08V28.688C82.8529 28.912 83.1569 29.088 83.4609 29.216C83.7809 29.344 84.1729 29.408 84.6369 29.408ZM97.7087 32.24C96.3007 32.24 95.2607 31.88 94.5887 31.16C93.9327 30.44 93.6047 29.448 93.6047 28.184V23.552H92.0687V20.624H93.6047V18.248L97.4687 17.216V20.624H100.229L100.061 23.552H97.4687V27.92C97.4687 28.464 97.6047 28.848 97.8767 29.072C98.1487 29.28 98.5567 29.384 99.1007 29.384C99.5647 29.384 100.037 29.304 100.517 29.144V31.76C99.7647 32.08 98.8287 32.24 97.7087 32.24ZM107.933 32.24C105.741 32.24 104.125 31.736 103.085 30.728C102.045 29.704 101.525 28.232 101.525 26.312C101.525 24.408 102.045 22.944 103.085 21.92C104.141 20.896 105.757 20.384 107.933 20.384C110.125 20.384 111.741 20.896 112.781 21.92C113.837 22.944 114.365 24.408 114.365 26.312C114.365 28.232 113.845 29.704 112.805 30.728C111.765 31.736 110.141 32.24 107.933 32.24ZM107.933 29.216C108.829 29.216 109.469 28.992 109.853 28.544C110.237 28.096 110.429 27.352 110.429 26.312C110.429 25.272 110.237 24.528 109.853 24.08C109.469 23.632 108.829 23.408 107.933 23.408C107.053 23.408 106.421 23.632 106.037 24.08C105.653 24.528 105.461 25.272 105.461 26.312C105.461 27.352 105.653 28.096 106.037 28.544C106.421 28.992 107.053 29.216 107.933 29.216ZM120.432 32.24C119.52 32.24 118.656 32.176 117.84 32.048C117.024 31.92 116.376 31.76 115.896 31.568V28.616C116.456 28.856 117.104 29.04 117.84 29.168C118.576 29.296 119.232 29.36 119.808 29.36C120.496 29.36 120.992 29.328 121.296 29.264C121.616 29.2 121.776 29.024 121.776 28.736C121.776 28.416 121.52 28.176 121.008 28.016C120.496 27.856 119.792 27.624 118.896 27.32C117.856 26.952 117.064 26.528 116.52 26.048C115.992 25.552 115.728 24.824 115.728 23.864C115.728 22.744 116.144 21.888 116.976 21.296C117.824 20.688 119.168 20.384 121.008 20.384C121.728 20.384 122.44 20.44 123.144 20.552C123.848 20.664 124.424 20.792 124.872 20.936V23.84C124.424 23.632 123.912 23.48 123.336 23.384C122.76 23.288 122.24 23.24 121.776 23.24C121.184 23.24 120.68 23.28 120.264 23.36C119.864 23.424 119.664 23.592 119.664 23.864C119.664 24.168 119.888 24.384 120.336 24.512C120.784 24.624 121.432 24.816 122.28 25.088C123.176 25.36 123.872 25.656 124.368 25.976C124.864 26.28 125.216 26.648 125.424 27.08C125.632 27.512 125.736 28.056 125.736 28.712C125.736 29.848 125.288 30.72 124.392 31.328C123.496 31.936 122.176 32.24 120.432 32.24Z" fill="black"/>
</svg>
