<svg width="48" height="48" viewBox="0 0 48 48" fill="none" xmlns="http://www.w3.org/2000/svg">
<rect width="48" height="48" rx="18" fill="#6AD5AA"/>
<path d="M31.632 19.4176H29.1812C28.9015 19.4176 28.6218 19.2997 28.4227 19.0829L27.4273 17.9751C27.1286 17.6592 26.6499 17.6168 26.3133 17.9138C26.2943 17.9326 26.2754 17.9515 26.2517 17.9751L25.3937 18.9273C25.114 19.2432 24.7158 19.4223 24.2986 19.4223H10.8598C10.4805 20.5301 10.2245 21.6803 10.125 22.8494H22.8054C23.0235 22.8494 23.2416 22.7504 23.4027 22.5902L24.5783 21.3645C24.7158 21.2042 24.9339 21.1288 25.1329 21.1288H25.1709C25.3889 21.1288 25.607 21.2278 25.7682 21.3881L26.7636 22.4959C26.9438 22.7127 27.2234 22.8306 27.5221 22.8306H37.875C37.7755 21.6615 37.5384 20.516 37.1402 19.4034H31.6272V19.4176H31.632ZM17.8186 30.029C18.0366 30.029 18.2547 29.93 18.4159 29.7697L19.5915 28.5441C19.729 28.3838 19.9517 28.3083 20.1508 28.3083H20.2125C20.4305 28.3083 20.6486 28.4073 20.8097 28.5676L21.8052 29.6754C22.0043 29.8923 22.265 30.0101 22.5637 30.0101H36.5904C37.126 28.9212 37.5053 27.7521 37.747 26.5641H24.2702C23.9905 26.5641 23.7108 26.4463 23.5354 26.2294L22.54 25.1216C22.4025 24.9613 22.1797 24.8624 21.9427 24.8624C21.7246 24.8624 21.5066 24.9613 21.3644 25.1216L20.5064 26.0739C20.2267 26.3897 19.8285 26.5689 19.3924 26.5689H10.3525C10.5706 27.7568 10.9688 28.9259 11.4855 30.0337H17.8186V30.029ZM27.7686 15.6746C27.9866 15.6746 28.2047 15.5756 28.3659 15.4153L29.5415 14.1897C29.6789 14.0294 29.9017 13.954 30.1008 13.954H30.1625C30.3805 13.954 30.5986 14.053 30.7408 14.2132L31.7363 15.321C31.9353 15.5379 32.1961 15.6557 32.49 15.6557H35.1588C30.5417 9.53686 21.8194 8.3112 15.6712 12.9027C14.6189 13.6947 13.6803 14.6045 12.9028 15.6557H27.7733L27.7686 15.6746ZM22.3978 33.4514H18.7524C18.4728 33.4514 18.1931 33.3336 18.0177 33.1167L17.0222 32.0089C16.7236 31.6931 16.2258 31.6506 15.9082 31.9476C15.8893 31.9665 15.8703 31.9853 15.8466 32.0089L14.9886 32.98C14.7089 33.2959 14.3107 33.475 13.8936 33.475H13.832C19.0653 39.0565 27.8871 39.3723 33.4997 34.168C33.7367 33.9511 33.9784 33.7107 34.1965 33.475L22.3978 33.4514Z" fill="black"/>
</svg>
